# xmcd CD database file
#
# Track frame offsets:
#	150
#	22225
#	41718
#	63780
#
# Disc length: 1110 seconds
#
# Revision: 1
# Processed by: cddbd v1.5.2PL0 Copyright (c) Steve Scherf et al.
# Submitted via: jetAudio 7
#
DISCID=30045404
DTITLE=アーバンギャルド - ときめきに死す
DYEAR=1996
DGENRE=Pop
TTITLE0=ときめきに死す
TTITLE1=その少女、人形につき
TTITLE2=ときめきに死す(instrumental)
TTITLE3=その少女、人形につき(instrumental)
EXTD=YEAR: 2011
EXTT0=
EXTT1=
EXTT2=
EXTT3=
PLAYORDER=
